# Tiled2Unity generated file. Do not modify by hand.
# Wavefront file for 'House-Inside_mesh_0003.obj'

# Vertices (Count = 252)
v -288 -16 0
v -304 -16 0
v -304 0 0
v -288 0 0
v -272 -16 0
v -288 -16 0
v -288 0 0
v -272 0 0
v -256 -16 0
v -272 -16 0
v -272 0 0
v -256 0 0
v -240 -16 0
v -256 -16 0
v -256 0 0
v -240 0 0
v -288 -32 0
v -304 -32 0
v -304 -16 0
v -288 -16 0
v -272 -32 0
v -288 -32 0
v -288 -16 0
v -272 -16 0
v -256 -32 0
v -272 -32 0
v -272 -16 0
v -256 -16 0
v -240 -32 0
v -256 -32 0
v -256 -16 0
v -240 -16 0
v -224 -32 0
v -240 -32 0
v -240 -16 0
v -224 -16 0
v -208 -32 0
v -224 -32 0
v -224 -16 0
v -208 -16 0
v -192 -32 0
v -208 -32 0
v -208 -16 0
v -192 -16 0
v -176 -32 0
v -192 -32 0
v -192 -16 0
v -176 -16 0
v -160 -32 0
v -176 -32 0
v -176 -16 0
v -160 -16 0
v -144 -32 0
v -160 -32 0
v -160 -16 0
v -144 -16 0
v -128 -32 0
v -144 -32 0
v -144 -16 0
v -128 -16 0
v -112 -32 0
v -128 -32 0
v -128 -16 0
v -112 -16 0
v -96 -32 0
v -112 -32 0
v -112 -16 0
v -96 -16 0
v -80 -32 0
v -96 -32 0
v -96 -16 0
v -80 -16 0
v -64 -32 0
v -80 -32 0
v -80 -16 0
v -64 -16 0
v -288 -48 0
v -304 -48 0
v -304 -32 0
v -288 -32 0
v -272 -48 0
v -288 -48 0
v -288 -32 0
v -272 -32 0
v -256 -48 0
v -272 -48 0
v -272 -32 0
v -256 -32 0
v -240 -48 0
v -256 -48 0
v -256 -32 0
v -240 -32 0
v -224 -48 0
v -240 -48 0
v -240 -32 0
v -224 -32 0
v -64 -48 0
v -80 -48 0
v -80 -32 0
v -64 -32 0
v -288 -64 0
v -304 -64 0
v -304 -48 0
v -288 -48 0
v -272 -64 0
v -288 -64 0
v -288 -48 0
v -272 -48 0
v -256 -64 0
v -272 -64 0
v -272 -48 0
v -256 -48 0
v -240 -64 0
v -256 -64 0
v -256 -48 0
v -240 -48 0
v -224 -64 0
v -240 -64 0
v -240 -48 0
v -224 -48 0
v -176 -64 0
v -192 -64 0
v -192 -48 0
v -176 -48 0
v -64 -64 0
v -80 -64 0
v -80 -48 0
v -64 -48 0
v -288 -80 0
v -304 -80 0
v -304 -64 0
v -288 -64 0
v -272 -80 0
v -288 -80 0
v -288 -64 0
v -272 -64 0
v -256 -80 0
v -272 -80 0
v -272 -64 0
v -256 -64 0
v -240 -80 0
v -256 -80 0
v -256 -64 0
v -240 -64 0
v -224 -80 0
v -240 -80 0
v -240 -64 0
v -224 -64 0
v -208 -80 0
v -224 -80 0
v -224 -64 0
v -208 -64 0
v -192 -80 0
v -208 -80 0
v -208 -64 0
v -192 -64 0
v -176 -80 0
v -192 -80 0
v -192 -64 0
v -176 -64 0
v -144 -80 0
v -160 -80 0
v -160 -64 0
v -144 -64 0
v -128 -80 0
v -144 -80 0
v -144 -64 0
v -128 -64 0
v -80 -80 0
v -96 -80 0
v -96 -64 0
v -80 -64 0
v -64 -80 0
v -80 -80 0
v -80 -64 0
v -64 -64 0
v -240 -96 0
v -256 -96 0
v -256 -80 0
v -240 -80 0
v -224 -96 0
v -240 -96 0
v -240 -80 0
v -224 -80 0
v -96 -96 0
v -112 -96 0
v -112 -80 0
v -96 -80 0
v -80 -96 0
v -96 -96 0
v -96 -80 0
v -80 -80 0
v -64 -96 0
v -80 -96 0
v -80 -80 0
v -64 -80 0
v -224 -112 0
v -240 -112 0
v -240 -96 0
v -224 -96 0
v -64 -112 0
v -80 -112 0
v -80 -96 0
v -64 -96 0
v -224 -128 0
v -240 -128 0
v -240 -112 0
v -224 -112 0
v -192 -128 0
v -208 -128 0
v -208 -112 0
v -192 -112 0
v -64 -128 0
v -80 -128 0
v -80 -112 0
v -64 -112 0
v -224 -144 0
v -240 -144 0
v -240 -128 0
v -224 -128 0
v -192 -144 0
v -208 -144 0
v -208 -128 0
v -192 -128 0
v -64 -144 0
v -80 -144 0
v -80 -128 0
v -64 -128 0
v -224 -160 0
v -240 -160 0
v -240 -144 0
v -224 -144 0
v -64 -160 0
v -80 -160 0
v -80 -144 0
v -64 -144 0
v -224 -176 0
v -240 -176 0
v -240 -160 0
v -224 -160 0
v -64 -176 0
v -80 -176 0
v -80 -160 0
v -64 -160 0
v -224 -192 0
v -240 -192 0
v -240 -176 0
v -224 -176 0
v -64 -192 0
v -80 -192 0
v -80 -176 0
v -64 -176 0

# Texture cooridinates (Count = 72)
vt 0 0.8079848
vt 0.01652892 0.8079848
vt 0.01652892 0.838403
vt 0 0.838403
vt 0.2985537 0.5817491
vt 0.3150826 0.5817491
vt 0.3150826 0.6121673
vt 0.2985537 0.6121673
vt 0.2458678 0.5817491
vt 0.2623967 0.5817491
vt 0.2623967 0.6121673
vt 0.2458678 0.6121673
vt 0.2809917 0.5817491
vt 0.2975207 0.5817491
vt 0.2975207 0.6121673
vt 0.2809917 0.6121673
vt 0.2634298 0.5494297
vt 0.2799587 0.5494297
vt 0.2799587 0.5798479
vt 0.2634298 0.5798479
vt 0.5444215 0.8726236
vt 0.5609504 0.8726236
vt 0.5609504 0.9030418
vt 0.5444215 0.9030418
vt 0.4917355 0.9695817
vt 0.5082645 0.9695817
vt 0.5082645 1
vt 0.4917355 1
vt 0.5268595 0.9695817
vt 0.5433884 0.9695817
vt 0.5433884 1
vt 0.5268595 1
vt 0.5092975 0.9695817
vt 0.5258265 0.9695817
vt 0.5258265 1
vt 0.5092975 1
vt 0.2107438 0.7756654
vt 0.2272727 0.7756654
vt 0.2272727 0.8060837
vt 0.2107438 0.8060837
vt 0.1931818 0.8079848
vt 0.2097107 0.8079848
vt 0.2097107 0.838403
vt 0.1931818 0.838403
vt 0.4917355 0.8726236
vt 0.5082645 0.8726236
vt 0.5082645 0.9030418
vt 0.4917355 0.9030418
vt 0.2634298 0.8726236
vt 0.2799587 0.8726236
vt 0.2799587 0.9030418
vt 0.2634298 0.9030418
vt 0.4917355 0.8403042
vt 0.5082645 0.8403042
vt 0.5082645 0.8707224
vt 0.4917355 0.8707224
vt 0.3863636 0.7756654
vt 0.4028926 0.7756654
vt 0.4028926 0.8060837
vt 0.3863636 0.8060837
vt 0.2283058 0.5171102
vt 0.2448347 0.5171102
vt 0.2448347 0.5475285
vt 0.2283058 0.5475285
vt 0.3512397 0.8726236
vt 0.3677686 0.8726236
vt 0.3677686 0.9030418
vt 0.3512397 0.9030418
vt 0.3161157 0.2585551
vt 0.3326446 0.2585551
vt 0.3326446 0.2889734
vt 0.3161157 0.2889734

# Normal
vn 0 0 -1

# Mesh description
g House-Inside_mesh_0003

# Faces
f 1/1/1 2/2/1 3/3/1 4/4/1
f 5/1/1 6/2/1 7/3/1 8/4/1
f 9/1/1 10/2/1 11/3/1 12/4/1
f 13/1/1 14/2/1 15/3/1 16/4/1
f 17/1/1 18/2/1 19/3/1 20/4/1
f 21/1/1 22/2/1 23/3/1 24/4/1
f 25/1/1 26/2/1 27/3/1 28/4/1
f 29/1/1 30/2/1 31/3/1 32/4/1
f 33/5/1 34/6/1 35/7/1 36/8/1
f 37/9/1 38/10/1 39/11/1 40/12/1
f 41/9/1 42/10/1 43/11/1 44/12/1
f 45/9/1 46/10/1 47/11/1 48/12/1
f 49/9/1 50/10/1 51/11/1 52/12/1
f 53/9/1 54/10/1 55/11/1 56/12/1
f 57/9/1 58/10/1 59/11/1 60/12/1
f 61/9/1 62/10/1 63/11/1 64/12/1
f 65/9/1 66/10/1 67/11/1 68/12/1
f 69/9/1 70/10/1 71/11/1 72/12/1
f 73/13/1 74/14/1 75/15/1 76/16/1
f 77/1/1 78/2/1 79/3/1 80/4/1
f 81/1/1 82/2/1 83/3/1 84/4/1
f 85/1/1 86/2/1 87/3/1 88/4/1
f 89/1/1 90/2/1 91/3/1 92/4/1
f 93/17/1 94/18/1 95/19/1 96/20/1
f 97/17/1 98/18/1 99/19/1 100/20/1
f 101/1/1 102/2/1 103/3/1 104/4/1
f 105/1/1 106/2/1 107/3/1 108/4/1
f 109/1/1 110/2/1 111/3/1 112/4/1
f 113/1/1 114/2/1 115/3/1 116/4/1
f 117/17/1 118/18/1 119/19/1 120/20/1
f 121/21/1 122/22/1 123/23/1 124/24/1
f 125/17/1 126/18/1 127/19/1 128/20/1
f 129/1/1 130/2/1 131/3/1 132/4/1
f 133/1/1 134/2/1 135/3/1 136/4/1
f 137/1/1 138/2/1 139/3/1 140/4/1
f 141/1/1 142/2/1 143/3/1 144/4/1
f 145/17/1 146/18/1 147/19/1 148/20/1
f 149/25/1 150/26/1 151/27/1 152/28/1
f 153/29/1 154/30/1 155/31/1 156/32/1
f 157/33/1 158/34/1 159/35/1 160/36/1
f 161/37/1 162/38/1 163/39/1 164/40/1
f 165/41/1 166/42/1 167/43/1 168/44/1
f 169/45/1 170/46/1 171/47/1 172/48/1
f 173/17/1 174/18/1 175/19/1 176/20/1
f 177/1/1 178/2/1 179/3/1 180/4/1
f 181/17/1 182/18/1 183/19/1 184/20/1
f 185/49/1 186/50/1 187/51/1 188/52/1
f 189/53/1 190/54/1 191/55/1 192/56/1
f 193/17/1 194/18/1 195/19/1 196/20/1
f 197/17/1 198/18/1 199/19/1 200/20/1
f 201/17/1 202/18/1 203/19/1 204/20/1
f 205/17/1 206/18/1 207/19/1 208/20/1
f 209/57/1 210/58/1 211/59/1 212/60/1
f 213/17/1 214/18/1 215/19/1 216/20/1
f 217/61/1 218/62/1 219/63/1 220/64/1
f 221/65/1 222/66/1 223/67/1 224/68/1
f 225/61/1 226/62/1 227/63/1 228/64/1
f 229/69/1 230/70/1 231/71/1 232/72/1
f 233/69/1 234/70/1 235/71/1 236/72/1
f 237/69/1 238/70/1 239/71/1 240/72/1
f 241/69/1 242/70/1 243/71/1 244/72/1
f 245/69/1 246/70/1 247/71/1 248/72/1
f 249/69/1 250/70/1 251/71/1 252/72/1

